name D:\school\WTK\thesis\model\3dpredictsim\Results\debug_tmt\Pog_s1_tmt_bCst_d02_k800_kc1_t5_ig24_v3.mot
datacolumns 128
datarows 4
range 1.08806975 1.12071184
endheader
time	pelvis_tilt	pelvis_list	pelvis_rotation	pelvis_tx	pelvis_ty	pelvis_tz	hip_flexion_l	hip_adduction_l	hip_rotation_l	hip_flexion_r	hip_adduction_r	hip_rotation_r	knee_angle_l	knee_angle_r	ankle_angle_l	ankle_angle_r	subtalar_angle_l	subtalar_angle_r	tmt_angle_l	tmt_angle_r	mtp_angle_l	mtp_angle_r	lumbar_extension	lumbar_bending	lumbar_rotation	arm_flex_l	arm_add_l	arm_rot_l	arm_flex_r	arm_add_r	arm_rot_r	elbow_flex_l	elbow_flex_r	pro_sup_l	pro_sup_r	glut_med1_l/activation	glut_med2_l/activation	glut_med3_l/activation	glut_min1_l/activation	glut_min2_l/activation	glut_min3_l/activation	semimem_l/activation	semiten_l/activation	bifemlh_l/activation	bifemsh_l/activation	sar_l/activation	add_long_l/activation	add_brev_l/activation	add_mag1_l/activation	add_mag2_l/activation	add_mag3_l/activation	tfl_l/activation	pect_l/activation	grac_l/activation	glut_max1_l/activation	glut_max2_l/activation	glut_max3_l/activation	iliacus_l/activation	psoas_l/activation	quad_fem_l/activation	gem_l/activation	peri_l/activation	rect_fem_l/activation	vas_med_l/activation	vas_int_l/activation	vas_lat_l/activation	med_gas_l/activation	lat_gas_l/activation	soleus_l/activation	tib_post_l/activation	flex_dig_l/activation	flex_hal_l/activation	tib_ant_l/activation	per_brev_l/activation	per_long_l/activation	per_tert_l/activation	ext_dig_l/activation	ext_hal_l/activation	ercspn_l/activation	intobl_l/activation	extobl_l/activation	glut_med1_r/activation	glut_med2_r/activation	glut_med3_r/activation	glut_min1_r/activation	glut_min2_r/activation	glut_min3_r/activation	semimem_r/activation	semiten_r/activation	bifemlh_r/activation	bifemsh_r/activation	sar_r/activation	add_long_r/activation	add_brev_r/activation	add_mag1_r/activation	add_mag2_r/activation	add_mag3_r/activation	tfl_r/activation	pect_r/activation	grac_r/activation	glut_max1_r/activation	glut_max2_r/activation	glut_max3_r/activation	iliacus_r/activation	psoas_r/activation	quad_fem_r/activation	gem_r/activation	peri_r/activation	rect_fem_r/activation	vas_med_r/activation	vas_int_r/activation	vas_lat_r/activation	med_gas_r/activation	lat_gas_r/activation	soleus_r/activation	tib_post_r/activation	flex_dig_r/activation	flex_hal_r/activation	tib_ant_r/activation	per_brev_r/activation	per_long_r/activation	per_tert_r/activation	ext_dig_r/activation	ext_hal_r/activation	ercspn_r/activation	intobl_r/activation	extobl_r/activation	
          1.08806975	         -2.92836558	         -2.08304742	          5.70331694	          1.36008719	          0.85784921	         -0.00220415	        -17.45439436	         -1.76417810	          8.08664619	         32.00147769	          2.93892208	         -2.46406724	         -9.59514960	        -16.72340583	         -1.22570637	          4.95326800	         12.98856476	         -1.19801866	          2.46557220	          0.34464756	         22.42101278	         -0.10047941	         -1.83575318	          0.60635334	         -1.83985221	          6.84865381	        -13.46596055	         16.91184697	         -9.15087687	        -13.61303367	          7.27583977	         37.48118565	         15.35722171	         86.51662706	         86.51662706	          0.28259649	          0.10869107	          0.05182398	          0.31733940	          0.21632344	          0.10956404	          0.05000747	          0.05000107	          0.05000072	          0.07318291	          0.09767002	          0.10401481	          0.05000412	          0.05000269	          0.05000626	          0.05000544	          0.29392837	          0.05002880	          0.05000150	          0.05000873	          0.05000666	          0.05000484	          0.33202038	          0.52954322	          0.05000041	          0.05000121	          0.05000037	          0.21560766	          0.05907604	          0.05002306	          0.07380819	          0.28402232	          0.38002304	          0.27034864	          0.22470966	          0.25026188	          0.30969265	          0.05000006	          0.07964954	          0.16629013	          0.05000056	          0.05000013	          0.05000040	          0.05000007	          0.05000018	          0.05000036	          0.05906731	          0.05906519	          0.05001174	          0.05055087	          0.05002190	          0.05906514	          0.05906751	          0.05906749	          0.16765468	          0.05000277	          0.05000120	          0.11503511	          0.21568420	          0.13537965	          0.16518496	          0.09710156	          0.05000870	          0.05012560	          0.06118788	          0.06977331	          0.06991282	          0.11342749	          0.05080899	          0.05134532	          0.27055135	          0.05590653	          0.07879334	          0.05000026	          0.11308900	          0.12104294	          0.09783785	          0.05906722	          0.05906716	          0.05906724	          0.05000105	          0.05000981	          0.05018266	          0.49540672	          0.35233842	          0.19389299	          0.24148553	          0.55269632	          0.17729917	          0.05906682	          0.10001595	          0.10185285	
          1.09895045	         -2.92128373	         -2.19470758	          5.97018111	          1.37665702	          0.85678187	         -0.00200076	        -17.17803420	         -2.06750861	          7.86175453	         31.34471290	          3.37624080	         -2.25606890	        -11.74186528	        -16.60201854	         -2.14691018	          4.43727141	         14.01207735	         -1.72921152	          2.13621869	          0.35724333	         23.39751784	         -0.07645850	         -1.62629301	          0.85488166	         -1.92280354	          6.59260636	        -13.49087609	         17.14365139	        -10.19999860	        -13.60778771	          7.08422091	         38.60892809	         15.24532516	         86.51662706	         86.51662706	          0.23921610	          0.09200631	          0.05906721	          0.26862596	          0.18311648	          0.09274541	          0.05002389	          0.05000191	          0.05000419	          0.06194890	          0.08267773	          0.19617744	          0.15976528	          0.10468852	          0.05007259	          0.06975508	          0.24880893	          0.11303944	          0.05373960	          0.05000791	          0.05000462	          0.05000425	          0.28105306	          0.47117319	          0.05000544	          0.05908310	          0.05906811	          0.18269448	          0.05000854	          0.18963445	          0.14230900	          0.24042286	          0.32168681	          0.22884819	          0.19021529	          0.21184557	          0.26215298	          0.05000014	          0.06742290	          0.14076357	          0.05000035	          0.05000025	          0.05000051	          0.05000036	          0.07097426	          0.05000086	          0.05000018	          0.05000032	          0.06139777	          0.05000027	          0.05000036	          0.05000056	          0.05000030	          0.05000044	          0.14191864	          0.05000055	          0.05907198	          0.09737928	          0.18257675	          0.34906630	          0.21849764	          0.08219634	          0.05000050	          0.05002702	          0.05179602	          0.05906518	          0.05918171	          0.13250751	          0.05000108	          0.05910339	          0.57722411	          0.16563303	          0.14453567	          0.06977930	          0.24298462	          0.24356740	          0.20621175	          0.05000004	          0.05000009	          0.05000001	          0.05000021	          0.05000904	          0.05000104	          0.58993257	          0.29889094	          0.21147859	          0.47950066	          0.60250623	          0.21145074	          0.05000006	          0.08466280	          0.08621773	
          1.10983114	         -2.91011170	         -2.30970098	          6.21041663	          1.39350522	          0.85560311	         -0.00182297	        -16.83722997	         -2.35894872	          7.62123451	         30.50209553	          3.74568353	         -1.96074587	        -13.99963452	        -16.89775159	         -3.18331010	          4.02161269	         14.94628942	         -2.29481760	          1.76974356	          0.08224196	         24.13195570	         -0.09851501	         -1.39560966	          1.11315192	         -1.99418851	          6.25107867	        -13.51829850	         17.30142041	        -11.24949837	        -13.60931851	          6.95343025	         39.72161594	         15.13498437	         86.51662706	         86.51662706	          0.34820030	          0.07788277	          0.05000076	          0.22739090	          0.15500707	          0.07850849	          0.05000892	          0.05000135	          0.05000119	          0.05243943	          0.06998679	          0.17941048	          0.25369581	          0.08861962	          0.05907025	          0.05906657	          0.22930127	          0.09724154	          0.05058112	          0.05005327	          0.05008249	          0.05905919	          0.23790974	          0.43979583	          0.05759873	          0.05001489	          0.05000090	          0.15464968	          0.07179101	          0.16052471	          0.12046407	          0.20351623	          0.27230561	          0.19371835	          0.16101594	          0.17932606	          0.22191081	          0.10978887	          0.10528696	          0.17777504	          0.05000071	          0.16746877	          0.05000350	          0.06802726	          0.06007922	          0.05906671	          0.30852560	          0.26406590	          0.24303055	          0.05000393	          0.05000229	          0.05000163	          0.09499091	          0.10174633	          0.14294258	          0.05000037	          0.05000525	          0.08243246	          0.18337924	          0.29548256	          0.18495883	          0.12692931	          0.05000184	          0.06978176	          0.06667520	          0.05000052	          0.05009707	          0.11216710	          0.05198199	          0.05003132	          0.48861616	          0.14020744	          0.18873431	          0.05906770	          0.20568492	          0.20617827	          0.17455691	          0.05906750	          0.05906757	          0.05906729	          0.05353443	          0.05906754	          0.05906759	          0.51052551	          0.36256939	          0.17901570	          0.40589417	          0.60541809	          0.17899175	          0.05000030	          0.08602703	          0.07298271	
          1.12071184	         -2.89688756	         -2.41901176	          6.41798123	          1.41042726	          0.85433252	         -0.00163644	        -16.41079014	         -2.62789579	          7.37708796	         29.49688332	          4.06891531	         -1.65542008	        -16.39592309	        -17.11434890	         -4.21634426	          3.60466491	         15.78250855	         -2.89406117	          1.37547794	         -0.30026415	         24.36084631	         -0.12632370	         -1.16432607	          1.36688855	         -2.05608739	          5.85759985	        -13.55529242	         17.40337278	        -12.24997950	        -13.61386325	          6.90012419	         40.80178020	         14.99779842	         86.51662706	         86.51662706	          0.29474941	          0.06592733	          0.05000011	          0.19262828	          0.13121274	          0.06645715	          0.05001126	          0.05000079	          0.05000075	          0.05000057	          0.05924525	          0.18471967	          0.21475214	          0.07501638	          0.05000432	          0.05000320	          0.22564554	          0.08231663	          0.05000093	          0.05000216	          0.05000128	          0.05000075	          0.20138911	          0.39432039	          0.05000014	          0.05000074	          0.05000044	          0.13091021	          0.06077133	          0.13588368	          0.10197265	          0.17227504	          0.23050477	          0.16398120	          0.13629892	          0.15179855	          0.18784613	          0.21155442	          0.12253984	          0.15048748	          0.38729457	          0.26184657	          0.17322355	          0.09724351	          0.05085665	          0.05000014	          0.40309407	          0.41367653	          0.44080701	          0.26508220	          0.17845441	          0.36924795	          0.08040971	          0.12159838	          0.12100005	          0.07462502	          0.05000307	          0.06977870	          0.15522940	          0.25012491	          0.22989561	          0.16529456	          0.05000068	          0.05907192	          0.11703284	          0.24738785	          0.18086957	          0.15062297	          0.05000066	          0.05000053	          0.41361023	          0.11868500	          0.26881108	          0.05000043	          0.21376477	          0.25540796	          0.20049208	          0.05000030	          0.05000043	          0.05000006	          0.05000003	          0.05000065	          0.05000054	          0.64455411	          0.30691337	          0.15510350	          0.65566499	          0.63973656	          0.33815534	          0.07652369	          0.07282135	          0.06177936	
